# xmcd
#
# Track frame offsets:
#	150
#	18595
#	36535
#	49852
#	66540
#	79297
#	94375
#	106742
#	123020
#	136975
#	151027
#	166297
#
# Disc length: 2482 seconds
# Revision: 0
# Processed by: cddbd v1.5.2PL0 Copyright (c) Steve Scherf et al.
# Submitted via: dBpowerAMP V12.0
#
DISCID=9e09b00c
DTITLE=Jim Hurst - Second Son
DYEAR=2002
DGENRE=Country
TTITLE0=Steven's Deep Coal Mines
TTITLE1=Big Iron
TTITLE2=Our Old Home
TTITLE3=Lonesome Road Blues
TTITLE4=Wings of an Eagle
TTITLE5=Stafford's Stomp
TTITLE6=Widow's Weeds
TTITLE7=Sin's Dark Valley
TTITLE8=The Long Road
TTITLE9=Three Days Deep Forever Wide
TTITLE10=Seven Year Blues
TTITLE11=Danny Boy
EXTD=
EXTT0=
EXTT1=
EXTT2=
EXTT3=
EXTT4=
EXTT5=
EXTT6=
EXTT7=
EXTT8=
EXTT9=
EXTT10=
EXTT11=
PLAYORDER=
